# xmcd
#
# Track frame offsets:
#	150
#	6474
#	25397
#	42765
#	60349
#	73869
#	91143
#	107255
#	124301
#	141403
#	160505
#	177806
#	191612
#	205653
#	224580
#	237772
#
# Disc length: 3392 seconds
# Revision: 0
# Processed by: cddbd v1.5.2PL0 Copyright (c) Steve Scherf et al.
# Submitted via: dBpowerAMP V12.0
#
DISCID=da0d3e10
DTITLE=Various Artist - Planet Pit
DYEAR=2011
DGENRE=Hip Hop
TTITLE0=Pitbull featuring Vein - Mr. Worldwide (Intro)
TTITLE1=Pitbull featuring Ne-Yo, Afrojack and Nayer - Give Me Everything
TTITLE2=Pitbull featuring Marc Anthony - Rain Over Me
TTITLE3=Pitbull featuring T-Pain - Hey Baby (Drop It To The Floor)
TTITLE4=Pitbull - Pause
TTITLE5=Pitbull featuring Enrique Iglesias - Come N Go
TTITLE6=Pitbull featuring T-Pain and Sean Paul - Shake Senora
TTITLE7=Pitbull featuring Chris Brown - International Love
TTITLE8=Pitbull featuring Kelly Rowland and Jamie Drastik - Castle Made Of Sand
TTITLE9=Pitbull featuring Red Foo, Vein and David Rush - Took My Love
TTITLE10=Pitbull featuring Jamie Foxx - Where Do We Go
TTITLE11=Pitbull - Something For The DJs
TTITLE12=Pitbull featuring Akon - Mr. Right Now
TTITLE13=Pitbull featuring T-Pain, Sean Paul and Ludacris - Shake Senora Remix
TTITLE14=Pitbull Vs. Nicola Fasono - Oye Baby
TTITLE15=Pitbull featuring Nelly - My Kinda Girl
EXTD=
EXTT0=
EXTT1=
EXTT2=
EXTT3=
EXTT4=
EXTT5=
EXTT6=
EXTT7=
EXTT8=
EXTT9=
EXTT10=
EXTT11=
EXTT12=
EXTT13=
EXTT14=
EXTT15=
PLAYORDER=
